<svg width="159" height="27" viewBox="0 0 159 27" fill="none" xmlns="http://www.w3.org/2000/svg">
<g clip-path="url(#clip0_233_2079)">
<path d="M6.50878 11.0036C6.56212 10.9505 6.63472 10.9213 6.71102 10.9213C6.78807 10.9213 6.86067 10.9512 6.91327 11.0036L11.2396 15.2573C11.3211 15.3367 11.347 15.4575 11.3019 15.5645C11.2574 15.67 11.153 15.7377 11.0381 15.7377H9.04459C9.72392 18.5117 12.2545 20.4901 15.1897 20.4901C15.5727 20.4901 15.9608 20.4544 16.3468 20.3838C16.352 20.3801 16.3935 20.3729 16.4268 20.3685C16.7431 20.3103 17.0847 20.212 17.4551 20.0766L17.5247 20.0511C17.5269 20.0504 17.5788 20.0308 17.581 20.0308C17.8484 19.9194 18.0907 19.8029 18.304 19.6807C18.3603 19.6515 18.4048 19.6239 18.4463 19.5991C18.6974 19.4463 18.8878 19.3182 19.0552 19.1893L19.1197 19.1398C19.3508 18.9586 19.5397 18.7861 19.7575 18.567C19.7916 18.527 19.8383 18.4767 19.8894 18.4236C20.0702 18.2234 20.2139 18.0444 20.3376 17.8704L20.3909 17.8034C20.5458 17.5844 20.6806 17.3616 20.8191 17.0938C20.8465 17.0443 20.8673 16.9955 20.8895 16.9504C21.0191 16.684 21.1154 16.4489 21.1954 16.2094C21.2095 16.1694 21.2192 16.1432 21.2295 16.1228C21.3029 15.8913 21.3636 15.6351 21.4155 15.3381L21.4458 15.1299C21.4925 14.8111 21.514 14.5389 21.514 14.2783C21.514 10.8515 18.6774 8.06441 15.1904 8.06441C12.6924 8.06441 10.3306 9.35494 9.27943 11.6922C9.24165 11.7759 9.16461 11.837 9.07349 11.8545C8.98236 11.8727 8.88754 11.845 8.82087 11.7831L7.23997 10.2692C7.23997 10.2692 6.91401 9.87173 6.75177 9.85499C6.61176 9.84116 6.25987 10.2692 6.25987 10.2692L5.57017 11.0116C5.47312 11.0975 5.36941 11.2081 5.27977 11.1637C5.16198 11.1055 5.17531 11.0269 5.2205 10.9061C6.78066 6.67488 10.7885 3.83251 15.1904 3.83251C15.6312 3.83251 16.0742 3.86017 16.5113 3.91476C16.6165 3.92713 16.7194 3.94824 16.8239 3.96935C16.8839 3.98173 16.9447 3.99483 17.0069 4.00502L17.1017 4.0203C17.3321 4.0567 17.5617 4.09528 17.7833 4.14914C17.9322 4.18553 18.0774 4.23357 18.2233 4.28161L18.6056 4.40171C18.7374 4.44102 18.8678 4.4796 18.9989 4.52909C19.2197 4.61425 19.4301 4.71397 19.6405 4.81588L19.839 4.90395C19.939 4.9469 20.0398 4.98984 20.1361 5.03788C20.3613 5.15434 20.5746 5.28827 20.785 5.42075L20.8569 5.46587C20.908 5.49936 20.9569 5.52774 21.0058 5.55613C21.0725 5.59398 21.1384 5.63401 21.2043 5.67623C21.4481 5.8451 21.6755 6.02416 21.8992 6.20613L22.0163 6.29639C22.0748 6.33933 22.1318 6.38228 22.1859 6.4274C22.4245 6.63339 22.6371 6.85176 22.8186 7.04174L22.9015 7.12035C22.9593 7.17348 23.0164 7.22662 23.0727 7.28776C23.2638 7.49666 23.4349 7.71866 23.6098 7.94358L23.6416 7.9807C23.9505 7.55416 24.4039 7.0774 24.9551 6.60355C25.7529 5.87858 26.6879 5.26862 27.7287 4.79622C27.8702 4.72926 28.0154 4.66084 28.1665 4.60334C28.2465 4.56767 28.3376 4.53492 28.4295 4.5007L28.5073 4.47159C28.5666 4.45121 28.6184 4.43083 28.671 4.41045C28.7362 4.38497 28.8014 4.3595 28.8651 4.33912C28.9199 4.32165 28.9703 4.31291 29.0192 4.30636C30.0815 3.99046 31.1246 3.83105 32.1425 3.83105C38.0038 3.83105 42.7724 8.51642 42.7724 14.2754C42.7724 20.0359 38.0031 24.7227 32.1425 24.7227C28.8125 24.7227 25.6729 23.1774 23.6661 20.5694C21.6525 23.1781 18.5137 24.7227 15.1897 24.7227C10.1817 24.7227 5.81316 21.231 4.78565 16.4125C4.77972 16.3979 4.77527 16.3826 4.77231 16.3666C4.73157 16.1592 4.69378 15.9481 4.66341 15.7377H2.3854C2.26984 15.7377 2.16464 15.6686 2.12093 15.563C2.07722 15.4575 2.10093 15.3374 2.18316 15.2559L6.50878 11.0036ZM32.1921 8.07096C32.0365 8.07096 31.8825 8.07605 31.7298 8.08406C29.5822 8.22017 27.6709 9.4088 26.6175 11.262C26.5812 11.3231 26.5545 11.3828 26.5249 11.4432L26.4841 11.5211C26.4597 11.5692 26.4352 11.6179 26.4123 11.666C26.2915 11.9214 26.1893 12.1828 26.1071 12.4462C25.9552 12.9405 25.8655 13.4383 25.8337 13.9661L25.83 14.0359C25.827 14.0913 25.8226 14.1509 25.8218 14.2077L25.8233 14.3977C25.8263 14.5564 25.8337 14.7158 25.8522 14.8701C25.8522 14.873 25.8552 14.929 25.8552 14.9312C26.1945 18.1019 28.897 20.4901 32.1432 20.4901C35.6302 20.4901 38.4653 17.7023 38.4653 14.2747C38.4653 11.1048 36.0458 8.44873 32.8366 8.1008C32.6188 8.07969 32.4032 8.07096 32.1921 8.07096Z" fill="#45709B"/>
<path d="M45.4008 7.89458C44.9378 7.46877 44.7037 6.94469 44.7037 6.31726C44.7037 5.69055 44.9378 5.1643 45.4008 4.74067C45.8676 4.31486 46.4728 4.10596 47.2136 4.10596C47.9552 4.10596 48.5597 4.30685 49.0271 4.71374C49.4931 5.12353 49.7265 5.63014 49.7265 6.24156C49.7265 6.90029 49.4946 7.44766 49.0271 7.88002C48.5589 8.31238 47.9552 8.53074 47.2136 8.53074C46.4728 8.53147 45.8676 8.3182 45.4008 7.89458ZM45.1964 10.4363H49.2368V24.1227H45.1964V10.4363V10.4363Z" fill="#424242"/>
<path d="M64.3487 4.6191C65.5273 5.1439 66.4392 5.88852 67.0778 6.85442C67.7149 7.82396 68.0364 8.96382 68.0364 10.2907C68.0364 11.5944 67.7149 12.7335 67.0778 13.7081C66.4407 14.6857 65.5273 15.431 64.3487 15.9456C63.1626 16.4654 61.7714 16.7252 60.166 16.7252H56.5168V24.1401H52.3223V3.83008H60.1675C61.7721 3.83008 63.1626 4.09066 64.3487 4.6191ZM62.8063 12.5654C63.4604 12.0318 63.7886 11.2719 63.7886 10.2907C63.7886 9.28845 63.4604 8.52272 62.8063 7.98555C62.1492 7.45274 61.192 7.18561 59.9334 7.18561H56.516V13.3668H59.9334C61.192 13.3675 62.1499 13.0989 62.8063 12.5654Z" fill="#424242"/>
<path d="M86.6799 3.97363V24.1214H82.6039L74.206 11.513V24.1214H70.0626V3.97363H73.5319L82.5402 17.125V3.97363H86.6799Z" fill="#424242"/>
<path d="M91.5312 14.3408H97.8477V15.209H92.4678V18.7158H97.3076V19.584H92.4678V23.1113H97.8477V24H91.5312V14.3408ZM100.24 14.3408H102.947C103.572 14.3408 104.125 14.4479 104.608 14.6621C105.096 14.8717 105.477 15.1794 105.75 15.585C106.023 15.9906 106.16 16.4736 106.16 17.0342C106.16 17.6768 105.978 18.2145 105.613 18.6475C105.253 19.0758 104.754 19.3675 104.116 19.5225L106.789 24H105.723L103.2 19.6182C103 19.6318 102.783 19.6387 102.551 19.6387H101.177V24H100.24V14.3408ZM103.022 18.8594C103.729 18.8503 104.271 18.6908 104.649 18.3809C105.032 18.0664 105.224 17.6221 105.224 17.0479C105.224 16.46 105.023 16.0042 104.622 15.6807C104.221 15.3525 103.665 15.1885 102.954 15.1885H101.184V18.8594H103.022ZM108.881 14.3408H111.533C112.185 14.3408 112.755 14.4502 113.242 14.6689C113.73 14.8831 114.108 15.1953 114.377 15.6055C114.646 16.0156 114.78 16.5055 114.78 17.0752C114.78 17.6449 114.646 18.1325 114.377 18.5381C114.113 18.9391 113.737 19.2467 113.249 19.4609C112.761 19.6706 112.189 19.7754 111.533 19.7754H109.811V24H108.881V14.3408ZM111.533 18.8867C112.299 18.8867 112.875 18.7318 113.263 18.4219C113.655 18.112 113.851 17.6631 113.851 17.0752C113.851 16.4873 113.652 16.0316 113.256 15.708C112.859 15.3844 112.285 15.2227 111.533 15.2227H109.811V18.8867H111.533ZM124.296 24.1025C123.357 24.1025 122.56 23.8929 121.903 23.4736C121.247 23.0544 120.753 22.471 120.42 21.7236C120.087 20.9762 119.921 20.1195 119.921 19.1533C119.921 18.1826 120.087 17.3281 120.42 16.5898C120.757 15.847 121.256 15.2682 121.917 14.8535C122.582 14.4342 123.394 14.2246 124.351 14.2246C125.303 14.2246 126.107 14.4434 126.764 14.8809C127.424 15.3184 127.933 15.9701 128.288 16.8359L127.406 17.1914C127.169 16.4805 126.796 15.9587 126.285 15.626C125.779 15.2933 125.132 15.127 124.344 15.127C123.583 15.127 122.94 15.291 122.416 15.6191C121.896 15.9427 121.505 16.4053 121.24 17.0068C120.98 17.6038 120.851 18.3079 120.851 19.1191C120.851 19.9121 120.971 20.6162 121.213 21.2314C121.459 21.8421 121.84 22.3252 122.354 22.6807C122.869 23.0316 123.517 23.207 124.296 23.207C125.057 23.207 125.693 23.0384 126.203 22.7012C126.718 22.3594 127.126 21.8307 127.427 21.1152L128.302 21.4707C127.919 22.3366 127.39 22.9928 126.716 23.4395C126.041 23.8815 125.235 24.1025 124.296 24.1025ZM131.275 24.1025C130.811 24.1025 130.485 23.9749 130.298 23.7197C130.111 23.46 130.018 23.0726 130.018 22.5576V14.3408H130.92V22.3252C130.92 22.5303 130.936 22.7012 130.968 22.8379C131.004 22.9746 131.077 23.084 131.187 23.166C131.296 23.248 131.458 23.2891 131.672 23.2891C131.813 23.2891 131.998 23.2663 132.226 23.2207L132.239 23.9932C131.884 24.0661 131.562 24.1025 131.275 24.1025ZM136.505 24.1025C135.871 24.1025 135.304 23.9476 134.803 23.6377C134.301 23.3232 133.91 22.8971 133.627 22.3594C133.349 21.8171 133.21 21.2201 133.21 20.5684C133.21 19.9212 133.349 19.3311 133.627 18.7979C133.91 18.2646 134.301 17.8431 134.803 17.5332C135.304 17.2188 135.871 17.0615 136.505 17.0615C137.143 17.0615 137.713 17.2188 138.214 17.5332C138.72 17.8431 139.114 18.2646 139.396 18.7979C139.684 19.3311 139.827 19.9212 139.827 20.5684C139.827 21.2201 139.684 21.8148 139.396 22.3525C139.114 22.8903 138.72 23.3164 138.214 23.6309C137.713 23.9453 137.143 24.1025 136.505 24.1025ZM136.505 23.3164C136.988 23.3164 137.41 23.1956 137.77 22.9541C138.13 22.708 138.405 22.3753 138.597 21.9561C138.793 21.5368 138.891 21.0742 138.891 20.5684C138.891 20.0625 138.793 19.6045 138.597 19.1943C138.405 18.7796 138.13 18.4538 137.77 18.2168C137.41 17.9753 136.988 17.8545 136.505 17.8545C136.026 17.8545 135.607 17.9753 135.247 18.2168C134.892 18.4538 134.618 18.7796 134.427 19.1943C134.24 19.6045 134.146 20.0625 134.146 20.5684C134.146 21.0788 134.24 21.5436 134.427 21.9629C134.618 22.3776 134.892 22.708 135.247 22.9541C135.607 23.1956 136.026 23.3164 136.505 23.3164ZM143.826 24.1025C143.311 24.1025 142.878 23.9909 142.527 23.7676C142.176 23.5397 141.912 23.2298 141.734 22.8379C141.561 22.446 141.47 21.9971 141.461 21.4912V17.1709H142.356V21.2861C142.356 21.915 142.502 22.4027 142.794 22.749C143.086 23.0908 143.509 23.2617 144.065 23.2617C144.649 23.2617 145.111 23.084 145.453 22.7285C145.795 22.3685 145.966 21.8604 145.966 21.2041V17.1709H146.861V24H145.966V22.8379C145.756 23.248 145.462 23.5625 145.084 23.7812C144.706 23.9954 144.286 24.1025 143.826 24.1025ZM151.749 24.1025C151.147 24.1025 150.614 23.9453 150.149 23.6309C149.689 23.3164 149.331 22.8926 149.076 22.3594C148.826 21.8216 148.7 21.2269 148.7 20.5752C148.7 19.9326 148.826 19.3447 149.076 18.8115C149.331 18.2738 149.689 17.8477 150.149 17.5332C150.61 17.2188 151.138 17.0615 151.735 17.0615C152.273 17.0615 152.763 17.2051 153.205 17.4922C153.647 17.7793 153.973 18.1735 154.183 18.6748V14.3408H155.099V24H154.251L154.217 22.4482C154.007 22.9632 153.681 23.3688 153.239 23.665C152.797 23.9567 152.3 24.1025 151.749 24.1025ZM151.947 23.2822C152.412 23.2822 152.818 23.166 153.164 22.9336C153.515 22.6966 153.784 22.373 153.971 21.9629C154.158 21.5527 154.251 21.0902 154.251 20.5752C154.251 20.0648 154.158 19.6068 153.971 19.2012C153.784 18.791 153.515 18.4697 153.164 18.2373C152.818 18.0049 152.412 17.8887 151.947 17.8887C151.482 17.8887 151.072 18.0072 150.717 18.2441C150.366 18.4766 150.095 18.7979 149.903 19.208C149.712 19.6182 149.616 20.0739 149.616 20.5752C149.616 21.0811 149.712 21.5413 149.903 21.9561C150.095 22.3662 150.366 22.6898 150.717 22.9268C151.072 23.1637 151.482 23.2822 151.947 23.2822Z" fill="#333333"/>
</g>
<defs>
<clipPath id="clip0_233_2079">
<rect width="159" height="27" fill="white"/>
</clipPath>
</defs>
</svg>
